Coordinates
version=1
nRows=32
nColumns=12
inDegrees=yes

Units are S.I. units (second, meters, Newtons, ...)
Angles are in degrees

endheader
time	SC_y	SC_z	SC_x	AC_y	AC_z	AC_x	GH_y	GH_z	GH_yy	EL_x	PS_y
       0.0               -30.7          35.31          73.78          46.51           5.66          9.814         -80.23          81.76          46.82          90.57          10.83
 3.962e-05               -30.7          35.31          73.78          46.51          5.658          9.815         -80.21          81.76          46.79          90.57          10.83
 7.924e-05               -30.7           35.3          73.78          46.51          5.656          9.816         -80.19          81.76          46.77          90.57          10.83
 0.0001189               -30.7           35.3          73.78          46.51          5.655          9.816         -80.16          81.76          46.75          90.56          10.83
 0.0001585               -30.7           35.3          73.78           46.5          5.653          9.817         -80.14          81.76          46.72          90.56          10.83
 0.0001981               -30.7           35.3          73.78           46.5          5.651          9.818         -80.12          81.76          46.69          90.56          10.84
 0.0002377               -30.7           35.3          73.78           46.5          5.648          9.819         -80.09          81.77          46.66          90.55          10.84
 0.0002773               -30.7           35.3          73.78           46.5          5.646           9.82         -80.06          81.77          46.63          90.55          10.84
 0.0003169               -30.7           35.3          73.78          46.49          5.643          9.821         -80.03          81.77           46.6          90.54          10.84
 0.0003566               -30.7           35.3          73.78          46.49           5.64          9.822         -79.99          81.77          46.56          90.54          10.84
 0.0003962               -30.7           35.3          73.78          46.49          5.638          9.823         -79.96          81.77          46.52          90.53          10.85
 0.0004358               -30.7          35.29          73.78          46.48          5.634          9.824         -79.92          81.77          46.48          90.52          10.85
 0.0004754               -30.7          35.29          73.78          46.48          5.631          9.826         -79.88          81.78          46.43          90.52          10.85
  0.000515               -30.7          35.29          73.78          46.48          5.627          9.827         -79.83          81.78          46.38          90.51          10.86
 0.0005547               -30.7          35.29          73.77          46.47          5.623          9.829         -79.79          81.78          46.33           90.5          10.86
 0.0005943               -30.7          35.29          73.77          46.47          5.619           9.83         -79.73          81.78          46.27          90.49          10.87
 0.0006339               -30.7          35.29          73.77          46.46          5.614          9.832         -79.68          81.79          46.21          90.48          10.87
 0.0006735               -30.7          35.28          73.77          46.45          5.609          9.834         -79.61          81.79          46.14          90.47          10.88
 0.0007131               -30.7          35.28          73.77          46.45          5.603          9.836         -79.55          81.79          46.07          90.46          10.88
 0.0007528               -30.7          35.28          73.77          46.44          5.597          9.839         -79.47           81.8          45.99          90.45          10.89
 0.0007924               -30.7          35.27          73.76          46.43           5.59          9.841         -79.39           81.8           45.9          90.43          10.89
  0.000832               -30.7          35.27          73.76          46.42          5.583          9.844          -79.3          81.81           45.8          90.42           10.9
 0.0008716              -30.69          35.27          73.76          46.41          5.574          9.847          -79.2          81.81          45.69           90.4          10.91
 0.0009112              -30.69          35.26          73.76           46.4          5.565          9.851         -79.09          81.82          45.57          90.38          10.92
 0.0009508              -30.69          35.26          73.75          46.39          5.555          9.855         -78.97          81.82          45.43          90.36          10.93
 0.0009905              -30.69          35.25          73.75          46.38          5.544          9.859         -78.83          81.83          45.29          90.34          10.94
   0.00103              -30.69          35.25          73.75          46.37          5.531          9.864         -78.68          81.84          45.12          90.31          10.95
   0.00107              -30.69          35.24          73.74          46.35          5.516           9.87         -78.51          81.85          44.93          90.28          10.97
  0.001109              -30.69          35.23          73.74          46.33            5.5          9.876         -78.31          81.86          44.72          90.25          10.98
  0.001149              -30.69          35.23          73.73          46.31          5.482          9.883         -78.09          81.87          44.47          90.21           11.0
  0.001189              -30.69          35.22          73.73          46.29          5.461          9.891         -77.84          81.88           44.2          90.17          11.02
  0.001228              -30.69           35.2          73.72          46.26          5.437            9.9         -77.55           81.9          43.88          90.12          11.04
